<?xml version="1.0" encoding="UTF-8" standalone="no"?>
<!DOCTYPE svg PUBLIC "-//W3C//DTD SVG 1.1//EN" "http://www.w3.org/Graphics/SVG/1.1/DTD/svg11.dtd">
<svg width="100%" height="100%" viewBox="0 0 1743 505" version="1.1" xmlns="http://www.w3.org/2000/svg" xmlns:xlink="http://www.w3.org/1999/xlink" xml:space="preserve" xmlns:serif="http://www.serif.com/" style="fill-rule:evenodd;clip-rule:evenodd;stroke-linecap:round;stroke-linejoin:round;stroke-miterlimit:1.5;">
    <path id="Body" d="M889.578,89.834c12.114,4.586 25.143,8.799 41.252,10.188c2.581,-0.605 13.699,-2.431 36.438,-5.114c15.991,2.321 30.995,7.11 45.388,13.425c3.759,3.845 3.91,8.141 1.279,12.785l-31.324,22.374l-7.672,-7.671c6.17,-3.207 11.908,-6.844 14.064,-14.064l-8.949,-1.917l-22.568,37.648c-0.111,3.639 -4.986,4.528 -12.237,3.999c-5.408,-0.395 -12.137,-1.13 -19.196,-4.513l17.563,-41.609l-14.864,0.518c-12.192,-4.615 -28.282,-9.826 -40.113,-14.582l0.939,-11.467Z" style="fill:#0b2e56;"/>
    <path d="M774.088,163.431c1.876,-2.003 44.968,-20.772 78.083,-7.423c27.317,11.012 40.466,-6.547 53.506,-3.734c18.372,3.964 34.996,19.292 67.609,6.547l-0.388,155.409c1.588,17.191 -11.939,44.391 -34.743,47.378c-16.094,2.107 -41.009,0.468 -61.389,-0.006c-21.558,-0.501 -40.667,0.169 -57.33,-0.653c-5.728,-0.282 -12.356,-0.959 -17.752,-1.381c-15.802,-1.237 -30.35,-32.1 -27.787,-45.528l0.191,-150.609Z" style="fill:#3998f4;"/>
    <g>
        <path d="M179.6,320.604c0,13.6 -1.533,26.4 -4.6,38.4c-3.067,12 -8.4,22.467 -16,31.4c-7.6,8.933 -17.867,16 -30.8,21.2c-12.933,5.2 -29.267,7.8 -49,7.8c-18.133,0 -33.733,-2.2 -46.8,-6.6c-13.067,-4.4 -23.867,-9.533 -32.4,-15.4l20.8,-48.4c7.733,4.533 16,8.533 24.8,12c8.8,3.467 18.4,5.2 28.8,5.2c15.2,0 26.133,-3.733 32.8,-11.2c6.667,-7.467 10,-20 10,-37.6l0,-180.8l62.4,0l0,184Z" style="fill:#0b2e56;fill-rule:nonzero;"/>
        <path d="M397.969,413.804c-3.084,-9.633 -6.4,-19.526 -9.95,-29.678c-3.55,-10.152 -7.086,-20.259 -10.606,-30.322l-108.263,0c-3.5,10.108 -7.008,20.244 -10.525,30.406c-3.517,10.163 -6.792,20.027 -9.825,29.594l-64.8,0c10.433,-29.867 20.33,-57.467 29.691,-82.8c9.36,-25.333 18.52,-49.2 27.481,-71.6c8.96,-22.4 17.787,-43.667 26.481,-63.8c8.694,-20.133 17.722,-39.8 27.084,-59l59.151,0c9.108,19.2 18.083,38.867 26.924,59c8.842,20.133 17.75,41.4 26.726,63.8c8.975,22.4 18.149,46.267 27.524,71.6c9.375,25.333 19.288,52.933 29.738,82.8l-66.831,0Zm-74.969,-214.4c-1.392,4.025 -3.428,9.502 -6.109,16.431c-2.682,6.929 -5.735,14.935 -9.16,24.016c-3.425,9.081 -7.253,19.081 -11.484,30c-4.231,10.919 -8.532,22.37 -12.903,34.353l79.268,0c-4.241,-12.021 -8.349,-23.507 -12.324,-34.459c-3.975,-10.952 -7.753,-20.97 -11.332,-30.053c-3.579,-9.084 -6.719,-17.086 -9.418,-24.007c-2.7,-6.921 -4.88,-12.348 -6.538,-16.281Z" style="fill:#0b2e56;fill-rule:nonzero;"/>
        <path d="M596.8,419.404c-45.067,0 -79.4,-12.533 -103,-37.6c-23.6,-25.067 -35.4,-60.667 -35.4,-106.8c-0,-22.933 3.6,-43.4 10.8,-61.4c7.2,-18 17.067,-33.2 29.6,-45.6c12.533,-12.4 27.467,-21.8 44.8,-28.2c17.333,-6.4 36.133,-9.6 56.4,-9.6c11.733,0 22.4,0.867 32,2.6c9.6,1.733 18,3.733 25.2,6c7.2,2.267 13.2,4.6 18,7c4.8,2.4 8.267,4.267 10.4,5.6l-18,50.4c-8.533,-4.533 -18.467,-8.4 -29.8,-11.6c-11.333,-3.2 -24.2,-4.8 -38.6,-4.8c-9.6,0 -19,1.6 -28.2,4.8c-9.2,3.2 -17.333,8.333 -24.4,15.4c-7.067,7.067 -12.733,16.2 -17,27.4c-4.267,11.2 -6.4,24.8 -6.4,40.8c-0,12.8 1.4,24.733 4.2,35.8c2.8,11.067 7.333,20.6 13.6,28.6c6.267,8 14.467,14.333 24.6,19c10.133,4.667 22.4,7 36.8,7c9.067,0 17.2,-0.533 24.4,-1.6c7.2,-1.067 13.6,-2.333 19.2,-3.8c5.6,-1.467 10.533,-3.133 14.8,-5c4.267,-1.867 8.133,-3.6 11.6,-5.2l17.2,50c-8.8,5.333 -21.2,10.133 -37.2,14.4c-16,4.267 -34.533,6.4 -55.6,6.4Z" style="fill:#0b2e56;fill-rule:nonzero;"/>
        <path d="M925,419.404c-19.467,0 -142.267,-2.733 -156.4,-8.2c-14.133,-5.467 -25.8,-13.067 -35,-22.8c-9.2,-9.733 -16,-21.333 -20.4,-34.8c-4.4,-13.467 -6.6,-28.333 -6.6,-44.6l-0,-172.4l62.4,0l0,167.2c0,11.2 1.267,20.733 3.8,28.6c2.533,7.867 6,14.267 10.4,19.2c4.4,4.933 9.733,8.467 16,10.6c6.267,2.133 119.133,3.2 126.6,3.2c15.2,0 27.533,-4.667 37,-14c9.467,-9.333 14.2,-25.2 14.2,-47.6l-1.298,-164.933l7.008,6.811l12.67,-9.268l44.02,0.19l-0,172.4c-0,16.267 -2.267,31.2 -6.8,44.8c-4.533,13.6 -11.467,25.267 -20.8,35c-9.333,9.733 -21.2,17.267 -35.6,22.6c-14.4,5.333 -31.467,8 -51.2,8Z" style="fill:#0b2e56;fill-rule:nonzero;"/>
        <path d="M1275,179.804c-8.538,8.8 -18.676,20.2 -30.416,34.2c-11.739,14 -23.878,29.267 -36.415,45.8c-12.538,16.533 -24.943,33.6 -37.216,51.2c-12.273,17.6 -23.211,34.4 -32.816,50.4l82.402,-0.539l-12.663,52.769l-146.476,0.17l-0,-37.2c7.467,-13.6 16.6,-28.733 27.4,-45.4c10.8,-16.667 22.067,-33.467 33.8,-50.4c11.733,-16.933 23.667,-33.333 35.8,-49.2c12.133,-15.867 23.4,-30.067 33.8,-42.6l-124.4,0l0,-52.4l207.2,0l-0,43.2Z" style="fill:#0b2e56;fill-rule:nonzero;"/>
        <path d="M1504.2,179.804c-8.538,8.8 -18.676,20.2 -30.416,34.2c-11.739,14 -23.878,29.267 -36.415,45.8c-12.538,16.533 -13.112,16.684 -22.716,32.684l-70.938,0.658c7.467,-13.6 -3.6,6.381 7.2,-10.286c10.8,-16.667 24.552,-35.389 36.685,-51.256c12.133,-15.867 23.4,-30.067 33.8,-42.6l-124.4,0l0,-52.4l207.2,0l-0,43.2Z" style="fill:#0b2e56;fill-rule:nonzero;"/>
        <path d="M1532.6,136.604l62.4,0l0,154.797l-61.371,-0l-1.029,-154.797Z" style="fill:#0b2e56;fill-rule:nonzero;"/>
    </g>
    <g id="Man">
        <ellipse id="Head" cx="968.547" cy="61.256" rx="21.096" ry="20.456" style="fill:#0b2e56;"/>
    </g>
    <g id="Bubbles">
        <ellipse cx="852.848" cy="9.727" rx="3.719" ry="3.433" style="fill:#3998f4;"/>
        <ellipse cx="901.195" cy="6.008" rx="5.722" ry="6.008" style="fill:#3998f4;"/>
        <circle cx="898.334" cy="41.195" r="3.433" style="fill:#3998f4;"/>
        <ellipse cx="913.497" cy="60.935" rx="10.013" ry="9.441" style="fill:#3998f4;"/>
        <ellipse cx="883.744" cy="49.492" rx="6.58" ry="6.008" style="fill:#3998f4;"/>
        <ellipse cx="884.031" cy="24.889" rx="7.438" ry="7.152" style="fill:#3998f4;"/>
        <ellipse cx="818.591" cy="272.247" rx="3.719" ry="3.433" style="fill:#fff;"/>
        <ellipse cx="866.938" cy="268.528" rx="5.722" ry="6.008" style="fill:#fff;"/>
        <circle cx="863.077" cy="302.716" r="3.433" style="fill:#fff;"/>
        <ellipse cx="879.239" cy="323.455" rx="10.013" ry="9.441" style="fill:#fff;"/>
        <ellipse cx="849.487" cy="312.012" rx="6.58" ry="6.008" style="fill:#fff;"/>
        <ellipse cx="849.773" cy="287.409" rx="7.438" ry="7.152" style="fill:#fff;"/>
    </g>
    <path id="Plate" d="M1242.76,299.618c71.143,-42.874 369.036,-29.694 451.713,-1.913c55.599,18.682 59.16,122.429 30.976,162.101c-48.343,68.051 -426.922,48.762 -503.2,4.794c-47.466,-27.361 -27.82,-135.856 20.511,-164.982Z" style="fill:none;"/>
    <clipPath id="_clip1">
        <path d="M1242.76,299.618c71.143,-42.874 369.036,-29.694 451.713,-1.913c55.599,18.682 59.16,122.429 30.976,162.101c-48.343,68.051 -426.922,48.762 -503.2,4.794c-47.466,-27.361 -27.82,-135.856 20.511,-164.982Z"/>
    </clipPath>
    <g clip-path="url(#_clip1)">
        <path d="M1238.73,296.118l461.912,-1.587l38.18,171.771l-542.85,6.799l42.758,-176.983Z" style="fill:#0b2e56;"/>
        <clipPath id="_clip2">
            <path d="M1238.73,296.118l461.912,-1.587l38.18,171.771l-542.85,6.799l42.758,-176.983Z"/>
        </clipPath>
        <g clip-path="url(#_clip2)">
            <path d="M1270.46,319.899c72.136,-6.145 328.316,-1.795 386.862,-4.573c45.578,-2.162 32.535,135.276 32.535,135.276l-429.413,-0.263c9.111,-2.134 -10.332,-128.706 10.016,-130.44Z" style="fill:#3998f4;stroke:#fff;stroke-width:3.33px;"/>
        </g>
        <path d="M1238.73,296.118l461.912,-1.587l38.18,171.771l-542.85,6.799l42.758,-176.983Z" style="fill:none;stroke:#fff;stroke-opacity:0;stroke-width:66.67px;stroke-linecap:butt;stroke-miterlimit:2;"/>
    </g>
    <g>
        <path d="M1385.24,334.31l-0,19.95l-31.35,-0l-0,84l-23.4,-0l-0,-84l-31.35,-0l-0,-19.95l86.1,-0Z" style="fill:#0b2e56;fill-rule:nonzero;stroke:#fff;stroke-width:3.33px;stroke-linecap:butt;stroke-miterlimit:2;"/>
        <path d="M1457.68,438.26c-1.156,-3.613 -2.4,-7.323 -3.731,-11.13c-1.331,-3.807 -2.657,-7.597 -3.977,-11.37l-40.599,-0c-1.312,3.79 -2.628,7.591 -3.947,11.402c-1.318,3.811 -2.547,7.51 -3.684,11.098l-24.3,-0c3.912,-11.2 7.624,-21.55 11.134,-31.05c3.51,-9.5 6.945,-18.45 10.305,-26.85c3.361,-8.4 6.671,-16.375 9.931,-23.925c3.26,-7.55 6.646,-14.925 10.157,-22.125l22.181,-0c3.415,7.2 6.781,14.575 10.097,22.125c3.315,7.55 6.656,15.525 10.022,23.925c3.365,8.4 6.806,17.35 10.321,26.85c3.516,9.5 7.233,19.85 11.152,31.05l-25.062,-0Zm-28.113,-80.4c-0.522,1.509 -1.286,3.563 -2.291,6.161c-1.006,2.599 -2.15,5.601 -3.435,9.006c-1.284,3.406 -2.72,7.156 -4.306,11.25c-1.587,4.095 -3.2,8.389 -4.839,12.883l29.726,-0c-1.591,-4.508 -3.132,-8.816 -4.622,-12.923c-1.491,-4.107 -2.907,-7.863 -4.249,-11.269c-1.343,-3.407 -2.52,-6.408 -3.532,-9.003c-1.013,-2.595 -1.83,-4.63 -2.452,-6.105Z" style="fill:#0b2e56;fill-rule:nonzero;stroke:#fff;stroke-width:3.33px;stroke-linecap:butt;stroke-miterlimit:2;"/>
        <path d="M1561.4,438.26c-2.927,-5.789 -6.131,-11.654 -9.611,-17.594c-3.48,-5.939 -7.477,-10.96 -11.989,-15.062c-1.399,1.547 -3.171,3.696 -5.317,6.448c-2.146,2.751 -4.293,5.675 -6.44,8.769c-2.147,3.095 -4.156,6.302 -6.027,9.622c-1.871,3.321 -3.263,5.926 -4.175,7.817l-26.7,-0c4.373,-8.117 9.537,-16.498 15.492,-25.142c5.955,-8.643 12.597,-17.821 19.927,-27.532l-33.919,-51.276l28.35,-0l19.807,30.1l20.241,-30.1l26.702,-0l-33.736,50.17c8.847,11.083 16.13,21.243 21.85,30.479c5.719,9.237 10.231,17.004 13.536,23.301l-27.991,-0Z" style="fill:#0b2e56;fill-rule:nonzero;stroke:#fff;stroke-width:3.33px;stroke-linecap:butt;stroke-miterlimit:2;"/>
        <rect x="1602.89" y="334.31" width="23.4" height="103.95" style="fill:#0b2e56;fill-rule:nonzero;stroke:#fff;stroke-width:3.33px;stroke-linecap:butt;stroke-miterlimit:2;"/>
    </g>
</svg>
